<mxfile host="app.diagrams.net" modified="2022-12-12T00:15:07.396Z" agent="5.0 (Windows NT 10.0; Win64; x64) AppleWebKit/537.36 (KHTML, like Gecko) Chrome/108.0.0.0 Safari/537.36" etag="rf_afjKfR62-3kyK45Gj" version="20.6.2" type="github">
  <diagram id="C5RBs43oDa-KdzZeNtuy" name="Page-1">
    <mxGraphModel dx="1422" dy="754" grid="1" gridSize="10" guides="1" tooltips="1" connect="1" arrows="1" fold="1" page="1" pageScale="1" pageWidth="827" pageHeight="1169" math="0" shadow="0">
      <root>
        <mxCell id="WIyWlLk6GJQsqaUBKTNV-0" />
        <mxCell id="WIyWlLk6GJQsqaUBKTNV-1" parent="WIyWlLk6GJQsqaUBKTNV-0" />
        <mxCell id="4gVl8pctc3jqohFmoUcx-20" value="" style="edgeStyle=orthogonalEdgeStyle;rounded=0;orthogonalLoop=1;jettySize=auto;html=1;" edge="1" parent="WIyWlLk6GJQsqaUBKTNV-1" source="4gVl8pctc3jqohFmoUcx-21">
          <mxGeometry relative="1" as="geometry">
            <mxPoint x="190" y="210" as="targetPoint" />
          </mxGeometry>
        </mxCell>
        <mxCell id="4gVl8pctc3jqohFmoUcx-21" value="Start" style="rounded=1;whiteSpace=wrap;html=1;fontSize=12;glass=0;strokeWidth=1;shadow=0;" vertex="1" parent="WIyWlLk6GJQsqaUBKTNV-1">
          <mxGeometry x="130" y="130" width="120" height="40" as="geometry" />
        </mxCell>
        <mxCell id="4gVl8pctc3jqohFmoUcx-22" value="print (f)" style="rounded=1;whiteSpace=wrap;html=1;fontSize=12;glass=0;strokeWidth=1;shadow=0;" vertex="1" parent="WIyWlLk6GJQsqaUBKTNV-1">
          <mxGeometry x="281" y="330" width="90" height="40" as="geometry" />
        </mxCell>
        <mxCell id="4gVl8pctc3jqohFmoUcx-23" value="" style="edgeStyle=orthogonalEdgeStyle;rounded=0;orthogonalLoop=1;jettySize=auto;html=1;" edge="1" parent="WIyWlLk6GJQsqaUBKTNV-1" source="4gVl8pctc3jqohFmoUcx-24" target="4gVl8pctc3jqohFmoUcx-31">
          <mxGeometry relative="1" as="geometry" />
        </mxCell>
        <mxCell id="4gVl8pctc3jqohFmoUcx-24" value="&lt;div style=&quot;text-align: justify;&quot;&gt;&lt;span style=&quot;background-color: initial;&quot;&gt;weight = [1,8,3,6,2]&lt;/span&gt;&lt;/div&gt;&lt;div style=&quot;text-align: justify;&quot;&gt;&lt;span style=&quot;background-color: initial;&quot;&gt;i = 0&lt;/span&gt;&lt;/div&gt;&lt;div style=&quot;text-align: justify;&quot;&gt;&lt;span style=&quot;background-color: initial;&quot;&gt;f = 1&lt;/span&gt;&lt;/div&gt;" style="shape=parallelogram;perimeter=parallelogramPerimeter;whiteSpace=wrap;html=1;fixedSize=1;" vertex="1" parent="WIyWlLk6GJQsqaUBKTNV-1">
          <mxGeometry x="110" y="210" width="160" height="60" as="geometry" />
        </mxCell>
        <mxCell id="4gVl8pctc3jqohFmoUcx-25" value="Вывод на экран искомого факториала N:&amp;nbsp;&lt;br&gt;&lt;b&gt;f = 120&lt;/b&gt;" style="text;html=1;align=left;verticalAlign=middle;resizable=0;points=[];autosize=1;strokeColor=none;fillColor=none;" vertex="1" parent="WIyWlLk6GJQsqaUBKTNV-1">
          <mxGeometry x="400" y="330" width="250" height="40" as="geometry" />
        </mxCell>
        <mxCell id="4gVl8pctc3jqohFmoUcx-26" value="&lt;div style=&quot;&quot;&gt;&lt;span style=&quot;background-color: initial;&quot;&gt;Последовательное добавление множителей вплоть до N через цикл:&amp;nbsp;&lt;/span&gt;&lt;/div&gt;&lt;div style=&quot;&quot;&gt;&lt;span style=&quot;background-color: initial;&quot;&gt;&lt;b&gt;f = 1*2*3*4*5 = 120&lt;/b&gt;&lt;/span&gt;&lt;/div&gt;" style="text;html=1;align=left;verticalAlign=middle;resizable=0;points=[];autosize=1;strokeColor=none;fillColor=none;" vertex="1" parent="WIyWlLk6GJQsqaUBKTNV-1">
          <mxGeometry x="400" y="440" width="410" height="40" as="geometry" />
        </mxCell>
        <mxCell id="4gVl8pctc3jqohFmoUcx-27" value="Ввод N для нахождения факториала N&lt;br&gt;Присвоение начального значения счётчику (&lt;b&gt;&lt;u&gt;&lt;font color=&quot;#ff0000&quot;&gt;для оптимизации алгоритма можно сразу i = 2&lt;/font&gt;&lt;/u&gt;&lt;/b&gt;)&lt;br&gt;Присвоение начального значения искомому (факториал)" style="text;html=1;align=left;verticalAlign=middle;resizable=0;points=[];autosize=1;strokeColor=none;fillColor=none;" vertex="1" parent="WIyWlLk6GJQsqaUBKTNV-1">
          <mxGeometry x="280" y="210" width="550" height="60" as="geometry" />
        </mxCell>
        <mxCell id="4gVl8pctc3jqohFmoUcx-28" value="&lt;b&gt;Введение в программирование. Семинар 2. Домашнее задание. Задача 1:&lt;br&gt;&lt;/b&gt;&lt;div&gt;&lt;div&gt;Нахождение индексов максимального и минимального элемента&amp;nbsp;&lt;span style=&quot;background-color: initial;&quot;&gt;массива&lt;/span&gt;&lt;/div&gt;&lt;/div&gt;" style="text;html=1;align=left;verticalAlign=middle;resizable=0;points=[];autosize=1;strokeColor=none;fillColor=none;" vertex="1" parent="WIyWlLk6GJQsqaUBKTNV-1">
          <mxGeometry x="120" y="50" width="460" height="40" as="geometry" />
        </mxCell>
        <mxCell id="4gVl8pctc3jqohFmoUcx-29" value="" style="edgeStyle=orthogonalEdgeStyle;rounded=0;orthogonalLoop=1;jettySize=auto;html=1;" edge="1" parent="WIyWlLk6GJQsqaUBKTNV-1" source="4gVl8pctc3jqohFmoUcx-31" target="4gVl8pctc3jqohFmoUcx-33">
          <mxGeometry relative="1" as="geometry" />
        </mxCell>
        <mxCell id="4gVl8pctc3jqohFmoUcx-30" value="" style="edgeStyle=orthogonalEdgeStyle;rounded=0;orthogonalLoop=1;jettySize=auto;html=1;" edge="1" parent="WIyWlLk6GJQsqaUBKTNV-1" source="4gVl8pctc3jqohFmoUcx-31" target="4gVl8pctc3jqohFmoUcx-22">
          <mxGeometry relative="1" as="geometry" />
        </mxCell>
        <mxCell id="4gVl8pctc3jqohFmoUcx-31" value="i &amp;lt;= N" style="rhombus;whiteSpace=wrap;html=1;" vertex="1" parent="WIyWlLk6GJQsqaUBKTNV-1">
          <mxGeometry x="140" y="310" width="100" height="80" as="geometry" />
        </mxCell>
        <mxCell id="4gVl8pctc3jqohFmoUcx-32" value="" style="edgeStyle=orthogonalEdgeStyle;rounded=0;orthogonalLoop=1;jettySize=auto;html=1;" edge="1" parent="WIyWlLk6GJQsqaUBKTNV-1" source="4gVl8pctc3jqohFmoUcx-33" target="4gVl8pctc3jqohFmoUcx-37">
          <mxGeometry relative="1" as="geometry" />
        </mxCell>
        <mxCell id="4gVl8pctc3jqohFmoUcx-33" value="f = f * i" style="rounded=0;whiteSpace=wrap;html=1;" vertex="1" parent="WIyWlLk6GJQsqaUBKTNV-1">
          <mxGeometry x="130" y="430" width="120" height="60" as="geometry" />
        </mxCell>
        <mxCell id="4gVl8pctc3jqohFmoUcx-34" value="&lt;b&gt;Да&lt;/b&gt;" style="text;html=1;align=center;verticalAlign=middle;resizable=0;points=[];autosize=1;strokeColor=none;fillColor=none;" vertex="1" parent="WIyWlLk6GJQsqaUBKTNV-1">
          <mxGeometry x="190" y="395" width="40" height="30" as="geometry" />
        </mxCell>
        <mxCell id="4gVl8pctc3jqohFmoUcx-35" value="&lt;b&gt;Нет&lt;/b&gt;" style="text;html=1;align=center;verticalAlign=middle;resizable=0;points=[];autosize=1;strokeColor=none;fillColor=none;" vertex="1" parent="WIyWlLk6GJQsqaUBKTNV-1">
          <mxGeometry x="240" y="320" width="40" height="30" as="geometry" />
        </mxCell>
        <mxCell id="4gVl8pctc3jqohFmoUcx-36" style="edgeStyle=orthogonalEdgeStyle;rounded=0;orthogonalLoop=1;jettySize=auto;html=1;entryX=0;entryY=0.5;entryDx=0;entryDy=0;" edge="1" parent="WIyWlLk6GJQsqaUBKTNV-1" source="4gVl8pctc3jqohFmoUcx-37" target="4gVl8pctc3jqohFmoUcx-31">
          <mxGeometry relative="1" as="geometry">
            <Array as="points">
              <mxPoint x="91" y="560" />
              <mxPoint x="91" y="350" />
            </Array>
          </mxGeometry>
        </mxCell>
        <mxCell id="4gVl8pctc3jqohFmoUcx-37" value="i = i + 1" style="rounded=0;whiteSpace=wrap;html=1;" vertex="1" parent="WIyWlLk6GJQsqaUBKTNV-1">
          <mxGeometry x="130" y="530" width="120" height="60" as="geometry" />
        </mxCell>
        <mxCell id="4gVl8pctc3jqohFmoUcx-38" value="&lt;div style=&quot;&quot;&gt;Увеличение счётчика для цикла&lt;br&gt;&lt;/div&gt;" style="text;html=1;align=left;verticalAlign=middle;resizable=0;points=[];autosize=1;strokeColor=none;fillColor=none;" vertex="1" parent="WIyWlLk6GJQsqaUBKTNV-1">
          <mxGeometry x="400" y="545" width="200" height="30" as="geometry" />
        </mxCell>
        <mxCell id="4gVl8pctc3jqohFmoUcx-39" value="&lt;b&gt;Рябцев А.А.&lt;/b&gt;" style="text;html=1;align=left;verticalAlign=middle;resizable=0;points=[];autosize=1;strokeColor=none;fillColor=none;" vertex="1" parent="WIyWlLk6GJQsqaUBKTNV-1">
          <mxGeometry x="20" y="10" width="90" height="30" as="geometry" />
        </mxCell>
      </root>
    </mxGraphModel>
  </diagram>
</mxfile>
